<svg width="354" height="80" viewBox="0 0 354 80" fill="none" xmlns="http://www.w3.org/2000/svg">
<path d="M114.617 24.4297V55H108.822L95.8252 33.7939V55H90.0513V24.4297H95.8252L108.864 45.6567V24.4297H114.617ZM126.647 24.4297V55H120.874V24.4297H126.647ZM153.145 50.4648V55H136.894V50.4648H153.145ZM138.657 24.4297V55H132.883V24.4297H138.657ZM151.024 37.0483V41.4785H136.894V37.0483H151.024ZM153.082 24.4297V28.9858H136.894V24.4297H153.082ZM166.288 55H159.695L159.737 50.4648H166.288C168.066 50.4648 169.556 50.0729 170.76 49.2891C171.964 48.4912 172.874 47.3504 173.49 45.8667C174.106 44.369 174.414 42.5773 174.414 40.4917V38.917C174.414 37.3073 174.239 35.8866 173.889 34.6548C173.539 33.423 173.021 32.3872 172.335 31.5474C171.663 30.7075 170.83 30.0706 169.836 29.6367C168.843 29.2028 167.702 28.9858 166.414 28.9858H159.569V24.4297H166.414C168.458 24.4297 170.319 24.7726 171.999 25.4585C173.693 26.1444 175.155 27.1312 176.387 28.4189C177.633 29.6927 178.585 31.2184 179.243 32.9961C179.915 34.7738 180.25 36.7614 180.25 38.959V40.4917C180.25 42.6753 179.915 44.6629 179.243 46.4546C178.585 48.2323 177.633 49.758 176.387 51.0317C175.155 52.3055 173.686 53.2853 171.978 53.9712C170.27 54.6571 168.374 55 166.288 55ZM162.929 24.4297V55H157.155V24.4297H162.929ZM209.918 38.938V40.5127C209.918 42.8223 209.61 44.9009 208.994 46.7485C208.378 48.5822 207.503 50.1429 206.37 51.4307C205.236 52.7184 203.885 53.7052 202.317 54.3911C200.75 55.077 199.007 55.4199 197.089 55.4199C195.2 55.4199 193.464 55.077 191.882 54.3911C190.315 53.7052 188.957 52.7184 187.809 51.4307C186.661 50.1429 185.772 48.5822 185.143 46.7485C184.513 44.9009 184.198 42.8223 184.198 40.5127V38.938C184.198 36.6144 184.513 34.5358 185.143 32.7021C185.772 30.8685 186.654 29.3078 187.788 28.02C188.922 26.7183 190.273 25.7244 191.84 25.0386C193.422 24.3527 195.158 24.0098 197.047 24.0098C198.965 24.0098 200.708 24.3527 202.275 25.0386C203.843 25.7244 205.194 26.7183 206.328 28.02C207.475 29.3078 208.357 30.8685 208.973 32.7021C209.603 34.5358 209.918 36.6144 209.918 38.938ZM204.081 40.5127V38.896C204.081 37.2303 203.927 35.7676 203.619 34.5078C203.311 33.234 202.856 32.1632 202.254 31.2954C201.653 30.4276 200.911 29.7767 200.029 29.3428C199.147 28.8949 198.153 28.6709 197.047 28.6709C195.928 28.6709 194.934 28.8949 194.066 29.3428C193.212 29.7767 192.484 30.4276 191.882 31.2954C191.28 32.1632 190.819 33.234 190.497 34.5078C190.189 35.7676 190.035 37.2303 190.035 38.896V40.5127C190.035 42.1644 190.189 43.6271 190.497 44.9009C190.819 46.1746 191.28 47.2524 191.882 48.1343C192.498 49.0021 193.24 49.66 194.108 50.1079C194.976 50.5558 195.97 50.7798 197.089 50.7798C198.209 50.7798 199.203 50.5558 200.071 50.1079C200.939 49.66 201.667 49.0021 202.254 48.1343C202.856 47.2524 203.311 46.1746 203.619 44.9009C203.927 43.6271 204.081 42.1644 204.081 40.5127ZM226.526 41.3735H218.715L218.673 37.3003H225.371C226.519 37.3003 227.478 37.1393 228.248 36.8174C229.017 36.4954 229.598 36.0265 229.99 35.4106C230.396 34.7948 230.599 34.0459 230.599 33.1641C230.599 32.1842 230.41 31.3864 230.032 30.7705C229.668 30.1546 229.094 29.7067 228.311 29.4268C227.527 29.1328 226.533 28.9858 225.329 28.9858H220.584V55H214.81V24.4297H225.329C227.065 24.4297 228.611 24.5977 229.969 24.9336C231.341 25.2555 232.503 25.7594 233.455 26.4453C234.406 27.1312 235.127 27.992 235.617 29.0278C236.121 30.0636 236.373 31.2954 236.373 32.7231C236.373 33.9829 236.079 35.1447 235.491 36.2085C234.917 37.2583 234.028 38.1121 232.825 38.77C231.635 39.4279 230.123 39.8058 228.29 39.9038L226.526 41.3735ZM226.274 55H217.015L219.429 50.4648H226.274C227.422 50.4648 228.367 50.2759 229.108 49.8979C229.864 49.52 230.424 49.0021 230.788 48.3442C231.166 47.6724 231.355 46.9025 231.355 46.0347C231.355 45.0828 231.187 44.257 230.851 43.5571C230.529 42.8573 230.011 42.3184 229.297 41.9404C228.597 41.5625 227.674 41.3735 226.526 41.3735H220.521L220.563 37.3003H228.206L229.528 38.875C231.292 38.889 232.727 39.2389 233.833 39.9248C234.952 40.6107 235.778 41.4925 236.31 42.5703C236.842 43.6481 237.108 44.8099 237.108 46.0557C237.108 48.0153 236.681 49.66 235.827 50.9897C234.987 52.3195 233.756 53.3203 232.132 53.9922C230.522 54.6641 228.569 55 226.274 55ZM242.105 24.4297H253.212C255.535 24.4297 257.53 24.7796 259.196 25.4795C260.861 26.1794 262.142 27.2152 263.038 28.5869C263.934 29.9587 264.382 31.6453 264.382 33.647C264.382 35.2287 264.102 36.6004 263.542 37.7622C262.982 38.924 262.191 39.8968 261.169 40.6807C260.162 41.4645 258.972 42.0804 257.6 42.5283L255.794 43.4521H245.989L245.947 38.896H253.275C254.465 38.896 255.451 38.686 256.235 38.2661C257.019 37.8462 257.607 37.2653 257.999 36.5234C258.405 35.7816 258.608 34.9347 258.608 33.9829C258.608 32.9611 258.412 32.0793 258.02 31.3374C257.628 30.5815 257.033 30.0007 256.235 29.5947C255.438 29.1888 254.43 28.9858 253.212 28.9858H247.879V55H242.105V24.4297ZM259.364 55L252.288 41.3105L258.398 41.2896L265.558 54.7061V55H259.364ZM289.703 50.4648V55H273.452V50.4648H289.703ZM275.216 24.4297V55H269.442V24.4297H275.216ZM287.583 37.0483V41.4785H273.452V37.0483H287.583ZM289.64 24.4297V28.9858H273.452V24.4297H289.64ZM293.524 52.2915C293.524 51.4517 293.811 50.7448 294.385 50.1709C294.959 49.597 295.736 49.3101 296.716 49.3101C297.696 49.3101 298.472 49.597 299.046 50.1709C299.62 50.7448 299.907 51.4517 299.907 52.2915C299.907 53.1174 299.62 53.8172 299.046 54.3911C298.472 54.951 297.696 55.231 296.716 55.231C295.736 55.231 294.959 54.951 294.385 54.3911C293.811 53.8172 293.524 53.1174 293.524 52.2915ZM317.691 43.8511H309.817V39.3159H317.691C318.979 39.3159 320.021 39.106 320.819 38.686C321.631 38.2521 322.226 37.6642 322.604 36.9224C322.982 36.1665 323.171 35.3057 323.171 34.3398C323.171 33.402 322.982 32.5272 322.604 31.7153C322.226 30.9035 321.631 30.2456 320.819 29.7417C320.021 29.2378 318.979 28.9858 317.691 28.9858H311.707V55H305.933V24.4297H317.691C320.07 24.4297 322.1 24.8566 323.78 25.7104C325.473 26.5503 326.761 27.7191 327.643 29.2168C328.539 30.7005 328.987 32.3942 328.987 34.2979C328.987 36.2715 328.539 37.9722 327.643 39.3999C326.761 40.8276 325.473 41.9264 323.78 42.6963C322.1 43.4661 320.07 43.8511 317.691 43.8511ZM352.922 50.4648V55H337.553V50.4648H352.922ZM339.296 24.4297V55H333.522V24.4297H339.296Z" fill="#171215"/>
<path d="M23.3333 63.3335C27.0152 63.3335 30 60.3487 30 56.6668C30 52.9849 27.0152 50.0001 23.3333 50.0001C19.6514 50.0001 16.6667 52.9849 16.6667 56.6668C16.6667 60.3487 19.6514 63.3335 23.3333 63.3335Z" stroke="#348756" stroke-width="4.765" stroke-linecap="round" stroke-linejoin="round"/>
<path d="M56.6667 63.3335C60.3486 63.3335 63.3333 60.3487 63.3333 56.6668C63.3333 52.9849 60.3486 50.0001 56.6667 50.0001C52.9848 50.0001 50 52.9849 50 56.6668C50 60.3487 52.9848 63.3335 56.6667 63.3335Z" stroke="#348756" stroke-width="4.765" stroke-linecap="round" stroke-linejoin="round"/>
<path d="M16.6667 56.6666H10V43.3333M6.66666 16.6666H43.3333V56.6666M30 56.6666H50M63.3333 56.6666H70V36.6666M70 36.6666H43.3333M70 36.6666L60 20H43.3333" stroke="#348756" stroke-width="4.765" stroke-linecap="round" stroke-linejoin="round"/>
<path d="M9.99999 30H23.3333" stroke="#348756" stroke-width="4.765" stroke-linecap="round" stroke-linejoin="round"/>
</svg>
